<?xml version="1.0" encoding="UTF-8" standalone="no"?>
<svg width="360" height="640" xmlns="http://www.w3.org/2000/svg" xmlns:xlink="http://www.w3.org/1999/xlink">
  <!-- 背景 -->
  <rect width="360" height="640" fill="#FFFFFF"/>
  
  <!-- ヘッダー -->
  <rect width="360" height="56" fill="#F8F8F8"/>
  <line x1="0" y1="56" x2="360" y2="56" stroke="#E0E0E0" stroke-width="1"/>
  
  <!-- ヘッダーテキストとアイコン -->
  <text x="30" y="36" font-family="Arial" font-size="20" font-weight="bold" fill="#333333">かぬし</text>
  
  <circle cx="310" cy="30" r="18" fill="#EEEEEE"/>
  <text x="310" y="34" font-family="Arial" font-size="14" text-anchor="middle" fill="#666666">🔔</text>
  
  <circle cx="350" cy="30" r="18" fill="#EEEEEE"/>
  <text x="350" y="34" font-family="Arial" font-size="14" text-anchor="middle" fill="#666666">✉</text>
  
  <!-- ストーリーバー -->
  <rect x="0" y="56" width="360" height="100" fill="#FCFCFC"/>
  
  <!-- ストーリーアイテム1 (自分のストーリー) -->
  <circle cx="40" cy="96" r="25" fill="#EEEEEE" stroke="#007AFF" stroke-width="2"/>
  <text x="40" y="100" font-family="Arial" font-size="14" text-anchor="middle" fill="#333333">+</text>
  <text x="40" y="130" font-family="Arial" font-size="10" text-anchor="middle" fill="#333333">あなた</text>
  
  <!-- ストーリーアイテム2-5 -->
  <circle cx="110" cy="96" r="25" fill="#EEEEEE" stroke="#E0E0E0" stroke-width="2"/>
  <text x="110" y="130" font-family="Arial" font-size="10" text-anchor="middle" fill="#333333">ユーザー1</text>
  
  <circle cx="180" cy="96" r="25" fill="#EEEEEE" stroke="#E0E0E0" stroke-width="2"/>
  <text x="180" y="130" font-family="Arial" font-size="10" text-anchor="middle" fill="#333333">ユーザー2</text>
  
  <circle cx="250" cy="96" r="25" fill="#EEEEEE" stroke="#E0E0E0" stroke-width="2"/>
  <text x="250" y="130" font-family="Arial" font-size="10" text-anchor="middle" fill="#333333">ユーザー3</text>
  
  <circle cx="320" cy="96" r="25" fill="#EEEEEE" stroke="#E0E0E0" stroke-width="2"/>
  <text x="320" y="130" font-family="Arial" font-size="10" text-anchor="middle" fill="#333333">ユーザー4</text>
  
  <line x1="0" y1="156" x2="360" y2="156" stroke="#E0E0E0" stroke-width="1"/>
  
  <!-- 投稿1 -->
  <rect x="0" y="156" width="360" height="200" fill="#FFFFFF"/>
  
  <!-- 投稿者情報 -->
  <circle cx="30" cy="180" r="15" fill="#EEEEEE"/>
  <text x="60" y="175" font-family="Arial" font-size="14" font-weight="bold" fill="#333333">投稿ユーザー1</text>
  <text x="60" y="195" font-family="Arial" font-size="12" fill="#666666">30分前</text>
  <text x="330" y="185" font-family="Arial" font-size="18" text-anchor="middle" fill="#666666">⋯</text>
  
  <!-- 投稿内容 -->
  <text x="20" y="225" font-family="Arial" font-size="14" fill="#333333">今日の瞑想で、心の平穏を感じました。日常の中で小さな気づきを大切にしていきたいです。 #瞑想 #気づき</text>
  
  <!-- 投稿画像 -->
  <rect x="20" y="240" width="320" height="60" rx="5" ry="5" fill="#F0F0F0"/>
  <text x="180" y="275" font-family="Arial" font-size="12" text-anchor="middle" fill="#666666">画像</text>
  
  <!-- アクションバー -->
  <text x="50" y="325" font-family="Arial" font-size="12" text-anchor="middle" fill="#666666">♥ 15</text>
  <text x="120" y="325" font-family="Arial" font-size="12" text-anchor="middle" fill="#666666">💬 3</text>
  <text x="190" y="325" font-family="Arial" font-size="12" text-anchor="middle" fill="#666666">⭐ 2</text>
  <text x="260" y="325" font-family="Arial" font-size="12" text-anchor="middle" fill="#666666">↑</text>
  
  <line x1="0" y1="340" x2="360" y2="340" stroke="#E0E0E0" stroke-width="1"/>
  
  <!-- 投稿2 -->
  <rect x="0" y="340" width="360" height="220" fill="#FFFFFF"/>
  
  <!-- 投稿者情報 -->
  <circle cx="30" cy="365" r="15" fill="#EEEEEE"/>
  <text x="60" y="360" font-family="Arial" font-size="14" font-weight="bold" fill="#333333">投稿ユーザー2</text>
  <text x="60" y="380" font-family="Arial" font-size="12" fill="#666666">2時間前</text>
  <text x="330" y="370" font-family="Arial" font-size="18" text-anchor="middle" fill="#666666">⋯</text>
  
  <!-- 投稿内容 -->
  <text x="20" y="410" font-family="Arial" font-size="14" fill="#333333">新しい音楽を作りました！心が落ち着くような曲を目指しました。皆さんの感想を聞かせてください。 #音楽 #癒し #作曲</text>
  
  <!-- 音声プレイヤー -->
  <rect x="20" y="430" width="320" height="60" rx="5" ry="5" fill="#F0F0F0"/>
  <circle cx="50" cy="460" r="15" fill="#FFFFFF"/>
  <text x="50" y="465" font-family="Arial" font-size="14" text-anchor="middle" fill="#333333">▶</text>
  
  <line x1="80" y1="460" x2="280" y2="460" stroke="#CCCCCC" stroke-width="2"/>
  <line x1="80" y1="460" x2="120" y2="460" stroke="#007AFF" stroke-width="2"/>
  <circle cx="120" cy="460" r="5" fill="#007AFF"/>
  
  <text x="90" y="445" font-family="Arial" font-size="10" fill="#666666">0:27</text>
  <text x="270" y="445" font-family="Arial" font-size="10" text-anchor="end" fill="#666666">3:45</text>
  
  <!-- アクションバー -->
  <text x="50" y="515" font-family="Arial" font-size="12" text-anchor="middle" fill="#666666">♥ 42</text>
  <text x="120" y="515" font-family="Arial" font-size="12" text-anchor="middle" fill="#666666">💬 7</text>
  <text x="190" y="515" font-family="Arial" font-size="12" text-anchor="middle" fill="#666666">⭐ 5</text>
  <text x="260" y="515" font-family="Arial" font-size="12" text-anchor="middle" fill="#666666">↑</text>
  
  <!-- タブバー -->
  <rect x="0" y="600" width="360" height="40" fill="#F8F8F8"/>
  <line x1="0" y1="600" x2="360" y2="600" stroke="#E0E0E0" stroke-width="1"/>
  
  <text x="60" y="625" font-family="Arial" font-size="10" text-anchor="middle" fill="#007AFF">ホーム</text>
  <text x="150" y="625" font-family="Arial" font-size="10" text-anchor="middle" fill="#666666">検索</text>
  <text x="240" y="625" font-family="Arial" font-size="10" text-anchor="middle" fill="#666666">プロフィール</text>
  <text x="330" y="625" font-family="Arial" font-size="10" text-anchor="middle" fill="#666666">設定</text>
  
  <!-- 投稿作成ボタン（フローティング） -->
  <circle cx="300" cy="550" r="25" fill="#007AFF"/>
  <text x="300" y="556" font-family="Arial" font-size="24" text-anchor="middle" fill="#FFFFFF">+</text>
</svg>