<?xml version="1.0" encoding="UTF-8" standalone="no"?>
<svg width="360" height="640" xmlns="http://www.w3.org/2000/svg" xmlns:xlink="http://www.w3.org/1999/xlink">
  <!-- 背景 -->
  <rect width="360" height="640" fill="#FFFFFF"/>
  
  <!-- ヘッダー -->
  <rect width="360" height="56" fill="#F8F8F8"/>
  <line x1="0" y1="56" x2="360" y2="56" stroke="#E0E0E0" stroke-width="1"/>
  
  <!-- ヘッダーテキストとボタン -->
  <text x="30" y="33" font-family="Arial" font-size="16" fill="#007AFF">戻る</text>
  <text x="180" y="33" font-family="Arial" font-size="18" text-anchor="middle" fill="#333333">ユーザー名</text>
  <text x="320" y="33" font-family="Arial" font-size="18" text-anchor="middle" fill="#333333">⋮</text>
  
  <!-- プロフィールセクション -->
  <rect x="0" y="56" width="360" height="120" fill="#FAFAFA"/>
  
  <circle cx="45" cy="96" r="25" fill="#EEEEEE"/>
  <text x="130" y="86" font-family="Arial" font-size="16" font-weight="bold" fill="#333333">ユーザー名</text>
  <text x="130" y="106" font-family="Arial" font-size="12" fill="#666666">@username</text>
  
  <text x="130" y="136" font-family="Arial" font-size="12" fill="#666666">フォロワー 240 · フォロー中 123</text>
  
  <rect x="240" y="96" width="90" height="30" rx="15" ry="15" fill="#007AFF"/>
  <text x="285" y="115" font-family="Arial" font-size="14" text-anchor="middle" fill="#FFFFFF">フォロー</text>
  
  <!-- タブバー -->
  <rect x="0" y="176" width="360" height="40" fill="#FFFFFF"/>
  <line x1="0" y1="216" x2="360" y2="216" stroke="#E0E0E0" stroke-width="1"/>
  
  <text x="45" y="200" font-family="Arial" font-size="14" text-anchor="middle" fill="#007AFF">投稿</text>
  <line x1="20" y1="216" x2="70" y2="216" stroke="#007AFF" stroke-width="2"/>
  
  <text x="135" y="200" font-family="Arial" font-size="14" text-anchor="middle" fill="#666666">メディア</text>
  <text x="225" y="200" font-family="Arial" font-size="14" text-anchor="middle" fill="#666666">音声</text>
  <text x="315" y="200" font-family="Arial" font-size="14" text-anchor="middle" fill="#666666">ハイライト</text>

  <!-- 投稿1 (タイムラインのような表示) -->
  <rect x="0" y="216" width="360" height="180" fill="#FFFFFF"/>
  <line x1="0" y1="396" x2="360" y2="396" stroke="#E0E0E0" stroke-width="1"/>
  
  <!-- 投稿者情報 -->
  <circle cx="30" cy="240" r="15" fill="#EEEEEE"/>
  <text x="60" y="235" font-family="Arial" font-size="14" font-weight="bold" fill="#333333">ユーザー名</text>
  <text x="60" y="255" font-family="Arial" font-size="12" fill="#666666">3日前</text>
  
  <!-- 投稿内容 -->
  <text x="20" y="280" font-family="Arial" font-size="14" fill="#333333">今日は瞑想を通じて深い気づきを得ました。自分自身の内なる声に耳を傾けると、様々な発見があります。</text>
  
  <!-- タグ -->
  <rect x="20" y="305" width="70" height="25" rx="12.5" ry="12.5" fill="#F0F0F0"/>
  <text x="55" y="322" font-family="Arial" font-size="12" text-anchor="middle" fill="#666666">#瞑想</text>
  
  <rect x="100" y="305" width="70" height="25" rx="12.5" ry="12.5" fill="#F0F0F0"/>
  <text x="135" y="322" font-family="Arial" font-size="12" text-anchor="middle" fill="#666666">#気づき</text>
  
  <!-- アクションバー -->
  <text x="50" y="350" font-family="Arial" font-size="12" text-anchor="middle" fill="#666666">♥ 24</text>
  <text x="120" y="350" font-family="Arial" font-size="12" text-anchor="middle" fill="#666666">💬 5</text>
  <text x="190" y="350" font-family="Arial" font-size="12" text-anchor="middle" fill="#666666">⭐ 3</text>
  <text x="260" y="350" font-family="Arial" font-size="12" text-anchor="middle" fill="#666666">↑</text>
  
  <!-- 投稿2 -->
  <rect x="0" y="396" width="360" height="204" fill="#FFFFFF"/>
  <line x1="0" y1="600" x2="360" y2="600" stroke="#E0E0E0" stroke-width="1"/>
  
  <!-- 投稿者情報 -->
  <circle cx="30" cy="420" r="15" fill="#EEEEEE"/>
  <text x="60" y="415" font-family="Arial" font-size="14" font-weight="bold" fill="#333333">ユーザー名</text>
  <text x="60" y="435" font-family="Arial" font-size="12" fill="#666666">1週間前</text>
  
  <!-- 投稿内容 -->
  <text x="20" y="460" font-family="Arial" font-size="14" fill="#333333">ハイキングで自然と一体になる時間。心身ともにリフレッシュしました。</text>
  
  <!-- 投稿画像 -->
  <rect x="20" y="470" width="320" height="80" rx="5" ry="5" fill="#F0F0F0"/>
  <text x="180" y="510" font-family="Arial" font-size="12" text-anchor="middle" fill="#666666">画像</text>
  
  <!-- アクションバー -->
  <text x="50" y="575" font-family="Arial" font-size="12" text-anchor="middle" fill="#666666">♥ 42</text>
  <text x="120" y="575" font-family="Arial" font-size="12" text-anchor="middle" fill="#666666">💬 8</text>
  <text x="190" y="575" font-family="Arial" font-size="12" text-anchor="middle" fill="#666666">⭐ 5</text>
  <text x="260" y="575" font-family="Arial" font-size="12" text-anchor="middle" fill="#666666">↑</text>
  
  <!-- タブバー -->
  <rect x="0" y="600" width="360" height="40" fill="#F8F8F8"/>
  <line x1="0" y1="600" x2="360" y2="600" stroke="#E0E0E0" stroke-width="1"/>
  
  <text x="60" y="625" font-family="Arial" font-size="10" text-anchor="middle" fill="#666666">ホーム</text>
  <text x="150" y="625" font-family="Arial" font-size="10" text-anchor="middle" fill="#666666">検索</text>
  <text x="240" y="625" font-family="Arial" font-size="10" text-anchor="middle" fill="#007AFF">プロフィール</text>
  <text x="330" y="625" font-family="Arial" font-size="10" text-anchor="middle" fill="#666666">設定</text>
</svg>