<?xml version="1.0" encoding="UTF-8" standalone="no"?>
<svg width="390" height="844" viewBox="0 0 390 844" xmlns="http://www.w3.org/2000/svg">
  <!-- 背景 -->
  <rect width="390" height="844" fill="#FFFFFF"/>
  
  <!-- ステータスバー -->
  <rect x="0" y="0" width="390" height="44" fill="#FAFAFA"/>
  <text x="20" y="27" font-family="Arial" font-size="14" fill="#333333">09:41</text>
  <text x="340" y="27" font-family="Arial" font-size="14" fill="#333333">100%</text>
  
  <!-- ナビゲーションヘッダー -->
  <rect x="0" y="44" width="390" height="50" fill="#FFFFFF" stroke="#EEEEEE" stroke-width="1"/>
  <text x="20" y="74" font-family="Arial" font-size="18" font-weight="bold" fill="#333333">イベント</text>
  
  <!-- イベントタブ -->
  <rect x="20" y="104" width="350" height="40" rx="20" fill="#F5F5F5"/>
  <rect x="20" y="104" width="116.66" height="40" rx="20" fill="#6A7FDB"/>
  <text x="78.33" y="128" font-family="Arial" font-size="14" fill="#FFFFFF" text-anchor="middle">近日開催</text>
  <text x="195" y="128" font-family="Arial" font-size="14" fill="#666666" text-anchor="middle">参加予定</text>
  <text x="311.66" y="128" font-family="Arial" font-size="14" fill="#666666" text-anchor="middle">主催</text>
  
  <!-- イベント1 -->
  <rect x="20" y="154" width="350" height="180" rx="10" fill="#FFFFFF" stroke="#EEEEEE" stroke-width="1"/>
  
  <!-- イベント画像 -->
  <rect x="20" y="154" width="350" height="100" rx="10 10 0 0" fill="#DDDDDD"/>
  <text x="195" y="204" font-family="Arial" font-size="16" fill="#FFFFFF" text-anchor="middle" font-weight="bold">瞑想ワークショップ</text>
  
  <!-- イベント情報 -->
  <text x="35" y="274" font-family="Arial" font-size="16" font-weight="bold" fill="#333333">初心者向け瞑想ワークショップ</text>
  <text x="35" y="294" font-family="Arial" font-size="14" fill="#666666">2025年5月10日 14:00-16:00</text>
  <text x="35" y="314" font-family="Arial" font-size="14" fill="#666666">東京都渋谷区 • ¥3,000</text>
  
  <!-- 参加者数 -->
  <text x="320" y="294" font-family="Arial" font-size="14" fill="#666666" text-anchor="end">12人参加</text>
  <text x="320" y="314" font-family="Arial" font-size="14" fill="#666666" text-anchor="end">30人興味あり</text>
  
  <!-- イベント2 -->
  <rect x="20" y="344" width="350" height="180" rx="10" fill="#FFFFFF" stroke="#EEEEEE" stroke-width="1"/>
  
  <!-- イベント画像 -->
  <rect x="20" y="344" width="350" height="100" rx="10 10 0 0" fill="#EEEEEE"/>
  <text x="195" y="394" font-family="Arial" font-size="16" fill="#999999" text-anchor="middle" font-weight="bold">対話型ワークショップ</text>
  
  <!-- イベント情報 -->
  <text x="35" y="464" font-family="Arial" font-size="16" font-weight="bold" fill="#333333">深い対話を通じた自己探求ワークショップ</text>
  <text x="35" y="484" font-family="Arial" font-size="14" fill="#666666">2025年5月17日 13:00-17:00</text>
  <text x="35" y="504" font-family="Arial" font-size="14" fill="#666666">オンライン • ¥5,000</text>
  
  <!-- 参加者数 -->
  <text x="320" y="484" font-family="Arial" font-size="14" fill="#666666" text-anchor="end">8人参加</text>
  <text x="320" y="504" font-family="Arial" font-size="14" fill="#666666" text-anchor="end">15人興味あり</text>
  
  <!-- イベント3 -->
  <rect x="20" y="534" width="350" height="180" rx="10" fill="#FFFFFF" stroke="#EEEEEE" stroke-width="1"/>
  
  <!-- イベント画像 -->
  <rect x="20" y="534" width="350" height="100" rx="10 10 0 0" fill="#F5F5F5"/>
  <text x="195" y="584" font-family="Arial" font-size="16" fill="#999999" text-anchor="middle" font-weight="bold">目醒めカンファレンス</text>
  
  <!-- イベント情報 -->
  <text x="35" y="654" font-family="Arial" font-size="16" font-weight="bold" fill="#333333">目醒めカンファレンス2025</text>
  <text x="35" y="674" font-family="Arial" font-size="14" fill="#666666">2025年6月5日-6日 終日</text>
  <text x="35" y="694" font-family="Arial" font-size="14" fill="#666666">大阪市内 • ¥15,000</text>
  
  <!-- 参加者数 -->
  <text x="320" y="674" font-family="Arial" font-size="14" fill="#666666" text-anchor="end">48人参加</text>
  <text x="320" y="694" font-family="Arial" font-size="14" fill="#666666" text-anchor="end">120人興味あり</text>
  
  <!-- 新規イベント作成ボタン -->
  <circle cx="345" cy="774" r="30" fill="#6A7FDB"/>
  <text x="345" y="774" font-family="Arial" font-size="24" fill="#FFFFFF" text-anchor="middle" dominant-baseline="middle">+</text>
  
  <!-- タブバー -->
  <rect x="0" y="794" width="390" height="50" fill="#FFFFFF" stroke="#EEEEEE" stroke-width="1"/>
  <!-- ホームアイコン -->
  <rect x="0" y="794" width="78" height="50" fill="#FFFFFF"/>
  <text x="39" y="824" font-family="Arial" font-size="10" fill="#999999" text-anchor="middle">ホーム</text>
  <!-- 検索アイコン -->
  <rect x="78" y="794" width="78" height="50" fill="#FFFFFF"/>
  <text x="117" y="824" font-family="Arial" font-size="10" fill="#999999" text-anchor="middle">検索</text>
  <!-- イベントアイコン -->
  <rect x="156" y="794" width="78" height="50" fill="#FFFFFF"/>
  <text x="195" y="824" font-family="Arial" font-size="10" fill="#6A7FDB" text-anchor="middle">イベント</text>
  <!-- 通知アイコン -->
  <rect x="234" y="794" width="78" height="50" fill="#FFFFFF"/>
  <text x="273" y="824" font-family="Arial" font-size="10" fill="#999999" text-anchor="middle">通知</text>
  <!-- プロフィールアイコン -->
  <rect x="312" y="794" width="78" height="50" fill="#FFFFFF"/>
  <text x="351" y="824" font-family="Arial" font-size="10" fill="#999999" text-anchor="middle">プロフィール</text>
</svg>
