<?xml version="1.0" encoding="UTF-8" standalone="no"?>
<svg width="360" height="640" xmlns="http://www.w3.org/2000/svg" xmlns:xlink="http://www.w3.org/1999/xlink">
  <!-- 背景 -->
  <rect width="360" height="640" fill="#FFFFFF"/>
  
  <!-- ヘッダー -->
  <rect width="360" height="56" fill="#F8F8F8"/>
  <line x1="0" y1="56" x2="360" y2="56" stroke="#E0E0E0" stroke-width="1"/>
  
  <!-- ヘッダーテキストとボタン -->
  <text x="30" y="33" font-family="Arial" font-size="16" fill="#007AFF">戻る</text>
  <text x="180" y="33" font-family="Arial" font-size="18" text-anchor="middle" fill="#333333">ユーザー名</text>
  <text x="320" y="33" font-family="Arial" font-size="18" text-anchor="middle" fill="#333333">⋮</text>
  
  <!-- プロフィールセクション -->
  <rect x="0" y="56" width="360" height="120" fill="#FAFAFA"/>
  
  <circle cx="45" cy="96" r="25" fill="#EEEEEE"/>
  <text x="130" y="86" font-family="Arial" font-size="16" font-weight="bold" fill="#333333">ユーザー名</text>
  <text x="130" y="106" font-family="Arial" font-size="12" fill="#666666">@username</text>
  
  <text x="130" y="136" font-family="Arial" font-size="12" fill="#666666">フォロワー 240 · フォロー中 123</text>
  
  <rect x="240" y="96" width="90" height="30" rx="15" ry="15" fill="#007AFF"/>
  <text x="285" y="115" font-family="Arial" font-size="14" text-anchor="middle" fill="#FFFFFF">フォロー</text>
  
  <!-- タブバー -->
  <rect x="0" y="176" width="360" height="40" fill="#FFFFFF"/>
  <line x1="0" y1="216" x2="360" y2="216" stroke="#E0E0E0" stroke-width="1"/>
  
  <text x="45" y="200" font-family="Arial" font-size="14" text-anchor="middle" fill="#666666">投稿</text>
  <text x="135" y="200" font-family="Arial" font-size="14" text-anchor="middle" fill="#666666">メディア</text>
  <text x="225" y="200" font-family="Arial" font-size="14" text-anchor="middle" fill="#007AFF">音声</text>
  <line x1="195" y1="216" x2="255" y2="216" stroke="#007AFF" stroke-width="2"/>
  <text x="315" y="200" font-family="Arial" font-size="14" text-anchor="middle" fill="#666666">ハイライト</text>
  
  <!-- 連続再生コントロール -->
  <rect x="0" y="216" width="360" height="70" fill="#F8F8F8"/>
  <rect x="20" y="226" width="90" height="40" rx="20" ry="20" fill="#007AFF"/>
  <text x="65" y="250" font-family="Arial" font-size="14" text-anchor="middle" fill="#FFFFFF">すべて再生</text>
  
  <rect x="120" y="226" width="90" height="40" rx="20" ry="20" fill="#F0F0F0"/>
  <text x="165" y="250" font-family="Arial" font-size="14" text-anchor="middle" fill="#666666">シャッフル</text>
  
  <rect x="220" y="226" width="120" height="40" rx="20" ry="20" fill="#F0F0F0"/>
  <text x="280" y="250" font-family="Arial" font-size="14" text-anchor="middle" fill="#666666">最近の投稿順 ▼</text>
  
  <line x1="0" y1="286" x2="360" y2="286" stroke="#E0E0E0" stroke-width="1"/>
  
  <!-- 音声投稿リスト -->
  
  <!-- 音声投稿1 -->
  <rect x="0" y="286" width="360" height="100" fill="#FFFFFF"/>
  <line x1="0" y1="386" x2="360" y2="386" stroke="#E0E0E0" stroke-width="1"/>
  
  <circle cx="30" cy="326" r="15" fill="#EEEEEE"/>
  <text x="60" y="316" font-family="Arial" font-size="14" font-weight="bold" fill="#333333">瞑想ガイドVol.3</text>
  <text x="60" y="336" font-family="Arial" font-size="12" fill="#666666">3日前</text>
  
  <!-- 音声プレイヤーミニ -->
  <rect x="60" y="346" width="240" height="30" rx="5" ry="5" fill="#F8F8F8"/>
  <circle cx="75" cy="361" r="10" fill="#FFFFFF"/>
  <text x="75" y="365" font-family="Arial" font-size="12" text-anchor="middle" fill="#007AFF">▶</text>
  
  <line x1="95" y1="361" x2="255" y2="361" stroke="#E0E0E0" stroke-width="2"/>
  <line x1="95" y1="361" x2="135" y2="361" stroke="#007AFF" stroke-width="2"/>
  <circle cx="135" cy="361" r="4" fill="#007AFF"/>
  
  <text x="105" y="350" font-family="Arial" font-size="8" fill="#666666">0:45</text>
  <text x="245" y="350" font-family="Arial" font-size="8" text-anchor="end" fill="#666666">5:30</text>
  
  <text x="320" y="361" font-family="Arial" font-size="12" text-anchor="middle" fill="#666666">⋮</text>
  
  <!-- 音声投稿2 -->
  <rect x="0" y="386" width="360" height="100" fill="#FFFFFF"/>
  <line x1="0" y1="486" x2="360" y2="486" stroke="#E0E0E0" stroke-width="1"/>
  
  <circle cx="30" cy="426" r="15" fill="#EEEEEE"/>
  <text x="60" y="416" font-family="Arial" font-size="14" font-weight="bold" fill="#333333">瞑想ガイドVol.2</text>
  <text x="60" y="436" font-family="Arial" font-size="12" fill="#666666">1週間前</text>
  
  <!-- 音声プレイヤーミニ -->
  <rect x="60" y="446" width="240" height="30" rx="5" ry="5" fill="#F8F8F8"/>
  <circle cx="75" cy="461" r="10" fill="#FFFFFF"/>
  <text x="75" y="465" font-family="Arial" font-size="12" text-anchor="middle" fill="#666666">▶</text>
  
  <line x1="95" y1="461" x2="255" y2="461" stroke="#E0E0E0" stroke-width="2"/>
  <circle cx="95" cy="461" r="4" fill="#007AFF"/>
  
  <text x="105" y="450" font-family="Arial" font-size="8" fill="#666666">0:00</text>
  <text x="245" y="450" font-family="Arial" font-size="8" text-anchor="end" fill="#666666">5:15</text>
  
  <text x="320" y="461" font-family="Arial" font-size="12" text-anchor="middle" fill="#666666">⋮</text>
  
  <!-- 音声投稿3 -->
  <rect x="0" y="486" width="360" height="100" fill="#FFFFFF"/>
  <line x1="0" y1="586" x2="360" y2="586" stroke="#E0E0E0" stroke-width="1"/>
  
  <circle cx="30" cy="526" r="15" fill="#EEEEEE"/>
  <text x="60" y="516" font-family="Arial" font-size="14" font-weight="bold" fill="#333333">瞑想ガイドVol.1</text>
  <text x="60" y="536" font-family="Arial" font-size="12" fill="#666666">2週間前</text>
  
  <!-- 音声プレイヤーミニ -->
  <rect x="60" y="546" width="240" height="30" rx="5" ry="5" fill="#F8F8F8"/>
  <circle cx="75" cy="561" r="10" fill="#FFFFFF"/>
  <text x="75" y="565" font-family="Arial" font-size="12" text-anchor="middle" fill="#666666">▶</text>
  
  <line x1="95" y1="561" x2="255" y2="561" stroke="#E0E0E0" stroke-width="2"/>
  <circle cx="95" cy="561" r="4" fill="#007AFF"/>
  
  <text x="105" y="550" font-family="Arial" font-size="8" fill="#666666">0:00</text>
  <text x="245" y="550" font-family="Arial" font-size="8" text-anchor="end" fill="#666666">4:45</text>
  
  <text x="320" y="561" font-family="Arial" font-size="12" text-anchor="middle" fill="#666666">⋮</text>
  
  <!-- タブバー -->
  <rect x="0" y="600" width="360" height="40" fill="#F8F8F8"/>
  <line x1="0" y1="600" x2="360" y2="600" stroke="#E0E0E0" stroke-width="1"/>
  
  <text x="60" y="625" font-family="Arial" font-size="10" text-anchor="middle" fill="#666666">ホーム</text>
  <text x="150" y="625" font-family="Arial" font-size="10" text-anchor="middle" fill="#666666">検索</text>
  <text x="240" y="625" font-family="Arial" font-size="10" text-anchor="middle" fill="#007AFF">プロフィール</text>
  <text x="330" y="625" font-family="Arial" font-size="10" text-anchor="middle" fill="#666666">設定</text>
</svg>