<svg xmlns="http://www.w3.org/2000/svg" width="360" height="800" viewBox="0 0 360 800">
  <!-- 背景 -->
  <rect width="360" height="800" fill="#FFFFFF"/>
  
  <!-- ステータスバー -->
  <rect width="360" height="24" fill="#F5F5F5"/>
  <text x="16" y="17" font-family="Roboto" font-size="12" fill="#212121">9:41</text>
  <text x="320" y="17" font-family="Roboto" font-size="12" fill="#212121">100%</text>
  
  <!-- アプリバー -->
  <rect y="24" width="360" height="56" fill="#7E57C2"/>
  <text x="72" y="59" font-family="Roboto" font-size="20" font-weight="500" fill="white">メッセージ</text>
  <circle cx="36" cy="52" r="20" fill="white" opacity="0.9"/>
  <text x="36" y="58" font-family="Roboto" font-size="18" fill="#7E57C2" text-anchor="middle">→</text>
  
  <!-- 検索ボックス -->
  <rect x="16" y="96" width="328" height="48" rx="24" fill="#F5F5F5"/>
  <circle cx="40" cy="120" r="12" fill="none" stroke="#9E9E9E" stroke-width="2"/>
  <line x1="49" y1="129" x2="56" y2="136" stroke="#9E9E9E" stroke-width="2"/>
  <text x="64" y="124" font-family="Roboto" font-size="16" fill="#9E9E9E">検索...</text>
  
  <!-- タブバー -->
  <rect y="160" width="360" height="48" fill="white"/>
  <rect y="160" width="180" height="48" fill="#7E57C2" opacity="0.1"/>
  <text x="90" y="190" font-family="Roboto" font-size="14" font-weight="500" fill="#7E57C2" text-anchor="middle">メッセージ</text>
  <text x="270" y="190" font-family="Roboto" font-size="14" fill="#9E9E9E" text-anchor="middle">アーカイブ</text>
  <rect y="207" width="180" height="3" fill="#7E57C2"/>
  
  <!-- 会話リスト - アイテム1 -->
  <rect y="208" width="360" height="80" fill="white"/>
  <circle cx="40" cy="248" r="24" fill="#E1BEE7"/>
  <text x="40" y="254" font-family="Roboto" font-size="18" fill="#212121" text-anchor="middle">山田</text>
  <text x="96" y="238" font-family="Roboto" font-size="16" font-weight="500" fill="#212121">山田太郎</text>
  <text x="96" y="258" font-family="Roboto" font-size="14" fill="#757575">了解です！明日の打ち合わせよろしくお願いします。</text>
  <text x="328" y="238" font-family="Roboto" font-size="12" fill="#9E9E9E" text-anchor="end">10:30</text>
  <circle cx="328" cy="250" r="10" fill="#7E57C2"/>
  <text x="328" y="254" font-family="Roboto" font-size="12" fill="white" text-anchor="middle">3</text>
  <line x1="0" y1="288" x2="360" y2="288" stroke="#E0E0E0" stroke-width="1"/>
  
  <!-- 会話リスト - アイテム2 -->
  <rect y="288" width="360" height="80" fill="white"/>
  <circle cx="40" cy="328" r="24" fill="#BBDEFB"/>
  <text x="40" y="334" font-family="Roboto" font-size="18" fill="#212121" text-anchor="middle">佐藤</text>
  <text x="96" y="318" font-family="Roboto" font-size="16" font-weight="500" fill="#212121">佐藤花子</text>
  <text x="96" y="338" font-family="Roboto" font-size="14" fill="#757575">写真を送ります。確認お願いします。</text>
  <text x="328" y="318" font-family="Roboto" font-size="12" fill="#9E9E9E" text-anchor="end">昨日</text>
  <rect x="280" y="330" width="36" height="16" rx="8" fill="#F5F5F5"/>
  <text x="298" y="342" font-family="Roboto" font-size="10" fill="#9E9E9E" text-anchor="middle">写真</text>
  <line x1="0" y1="368" x2="360" y2="368" stroke="#E0E0E0" stroke-width="1"/>
  
  <!-- 会話リスト - アイテム3 -->
  <rect y="368" width="360" height="80" fill="white"/>
  <circle cx="40" cy="408" r="24" fill="#C8E6C9"/>
  <text x="40" y="414" font-family="Roboto" font-size="18" fill="#212121" text-anchor="middle">鈴木</text>
  <text x="96" y="398" font-family="Roboto" font-size="16" font-weight="500" fill="#212121">鈴木一郎</text>
  <text x="96" y="418" font-family="Roboto" font-size="14" fill="#757575">おはようございます！今日の予定を教えてください。</text>
  <text x="328" y="398" font-family="Roboto" font-size="12" fill="#9E9E9E" text-anchor="end">金曜日</text>
  <line x1="0" y1="448" x2="360" y2="448" stroke="#E0E0E0" stroke-width="1"/>
  
  <!-- 会話リスト - アイテム4 -->
  <rect y="448" width="360" height="80" fill="white"/>
  <circle cx="40" cy="488" r="24" fill="#FFECB3"/>
  <text x="40" y="494" font-family="Roboto" font-size="18" fill="#212121" text-anchor="middle">田中</text>
  <text x="96" y="478" font-family="Roboto" font-size="16" font-weight="500" fill="#212121">覚醒チーム</text>
  <text x="180" y="478" font-family="Roboto" font-size="14" fill="#9E9E9E">(5)</text>
  <text x="96" y="498" font-family="Roboto" font-size="14" fill="#757575">田中: 次回のミーティングは水曜日でどうでしょうか？</text>
  <text x="328" y="478" font-family="Roboto" font-size="12" fill="#9E9E9E" text-anchor="end">4/10</text>
  <line x1="0" y1="528" x2="360" y2="528" stroke="#E0E0E0" stroke-width="1"/>
  
  <!-- 会話リスト - アイテム5 -->
  <rect y="528" width="360" height="80" fill="white"/>
  <circle cx="40" cy="568" r="24" fill="#FFCDD2"/>
  <text x="40" y="574" font-family="Roboto" font-size="18" fill="#212121" text-anchor="middle">高橋</text>
  <text x="96" y="558" font-family="Roboto" font-size="16" font-weight="500" fill="#212121">高橋誠</text>
  <text x="96" y="578" font-family="Roboto" font-size="14" fill="#757575">資料をご確認ください。</text>
  <text x="328" y="558" font-family="Roboto" font-size="12" fill="#9E9E9E" text-anchor="end">4/5</text>
  <rect x="280" y="570" width="48" height="16" rx="8" fill="#F5F5F5"/>
  <text x="304" y="582" font-family="Roboto" font-size="10" fill="#9E9E9E" text-anchor="middle">ファイル</text>
  <line x1="0" y1="608" x2="360" y2="608" stroke="#E0E0E0" stroke-width="1"/>
  
  <!-- 新規メッセージボタン -->
  <circle cx="304" cy="700" r="28" fill="#7E57C2"/>
  <line x1="304" y1="688" x2="304" y2="712" stroke="white" stroke-width="3"/>
  <line x1="292" y1="700" x2="316" y2="700" stroke="white" stroke-width="3"/>
  
  <!-- ボトムナビゲーション -->
  <rect y="750" width="360" height="50" fill="white"/>
  <line x1="0" y1="750" x2="360" y2="750" stroke="#E0E0E0" stroke-width="1"/>
  
  <circle cx="60" cy="775" r="5" fill="#9E9E9E"/>
  <text x="60" y="795" font-family="Roboto" font-size="10" fill="#9E9E9E" text-anchor="middle">ホーム</text>
  
  <circle cx="150" cy="775" r="5" fill="#9E9E9E"/>
  <text x="150" y="795" font-family="Roboto" font-size="10" fill="#9E9E9E" text-anchor="middle">探索</text>
  
  <circle cx="240" cy="775" r="7" fill="#7E57C2"/>
  <text x="240" y="795" font-family="Roboto" font-size="10" fill="#7E57C2" text-anchor="middle">メッセージ</text>
  
  <circle cx="320" cy="775" r="5" fill="#9E9E9E"/>
  <text x="320" y="795" font-family="Roboto" font-size="10" fill="#9E9E9E" text-anchor="middle">プロフィール</text>
</svg>